<?xml version="1.0" encoding="iso-8859-1"?>
<!-- Generator: Adobe Illustrator 19.0.0, SVG Export Plug-In . SVG Version: 6.00 Build 0)  -->
<svg version="1.1" id="Layer_1" xmlns="http://www.w3.org/2000/svg" xmlns:xlink="http://www.w3.org/1999/xlink" x="0px" y="0px"
	 viewBox="0 0 512 512" style="enable-background:new 0 0 512 512;" xml:space="preserve">
<g>
	<g>
		<path d="M256,0C114.837,0,0,114.837,0,256s114.837,256,256,256s256-114.837,256-256S397.163,0,256,0z M170.667,128
			c35.285,0,64,28.715,64,64c0,11.776-9.557,21.333-21.333,21.333C201.558,213.333,192,203.776,192,192
			c0-11.755-9.579-21.333-21.333-21.333c-11.755,0-21.333,9.579-21.333,21.333c0,11.776-9.557,21.333-21.333,21.333
			s-21.333-9.557-21.333-21.333C106.667,156.715,135.381,128,170.667,128z M256,426.667c-86.528,0-149.333-53.824-149.333-128
			c0-11.776,9.557-21.333,21.333-21.333h256c11.776,0,21.333,9.557,21.333,21.333C405.333,372.843,342.528,426.667,256,426.667z
			 M384,213.333c-11.776,0-21.333-9.557-21.333-21.333c0-11.755-9.579-21.333-21.333-21.333C329.579,170.667,320,180.245,320,192
			c0,11.776-9.557,21.333-21.333,21.333s-21.333-9.557-21.333-21.333c0-35.285,28.715-64,64-64c35.285,0,64,28.715,64,64
			C405.333,203.776,395.776,213.333,384,213.333z"/>
	</g>
</g>
<g>
</g>
<g>
</g>
<g>
</g>
<g>
</g>
<g>
</g>
<g>
</g>
<g>
</g>
<g>
</g>
<g>
</g>
<g>
</g>
<g>
</g>
<g>
</g>
<g>
</g>
<g>
</g>
<g>
</g>
</svg>
